<svg width="512" height="512" viewBox="0 0 512 512" xmlns="http://www.w3.org/2000/svg">
  <defs>
    <linearGradient id="bgGradient" x1="0%" y1="0%" x2="100%" y2="100%">
      <stop offset="0%" style="stop-color:#8b5cf6" />
      <stop offset="100%" style="stop-color:#ff4757" />
    </linearGradient>
    <filter id="shadow" x="-20%" y="-20%" width="140%" height="140%">
      <feGaussianBlur in="SourceAlpha" stdDeviation="15"/>
      <feOffset dx="5" dy="15" result="offsetblur"/>
      <feComponentTransfer><feFuncA type="linear" slope="0.3"/></feComponentTransfer>
      <feMerge><feMergeNode/><feMergeNode in="SourceGraphic"/></feMerge>
    </filter>
  </defs>

  <rect x="30" y="30" width="452" height="452" rx="120" ry="120" fill="url(#bgGradient)" filter="url(#shadow)" stroke="#ffffff" stroke-width="15"/>

  <g transform="translate(256, 256) scale(1.1)"> <path d="M -130,-110 C -130,-110 -90,130 -55,130 C -20,130 0,-20 0,-20 C 0,-20 20,130 55,130 C 90,130 130,-110 130,-110" 
          fill="none" 
          stroke="#ffffff" 
          stroke-width="70" 
          stroke-linecap="round" 
          stroke-linejoin="round" />
    
    <path d="M -130,-110 C -130,-110 -90,130 -55,130 C -20,130 0,-20 0,-20 C 0,-20 20,130 55,130 C 90,130 130,-110 130,-110" 
          fill="none" 
          stroke="#ffa502" 
          stroke-width="85" 
          stroke-linecap="round" 
          stroke-linejoin="round" 
          style="z-index:-1"/>
  </g>
</svg>
